<svg xmlns="http://www.w3.org/2000/svg" xmlns:xlink="http://www.w3.org/1999/xlink"><symbol id="data" viewBox="0 0 511.998 511"><path d="M58.96 187.047a7.472 7.472 0 005.298 2.195 7.495 7.495 0 005.3-12.793l-18.195-18.195 18.196-18.191a7.495 7.495 0 00-10.598-10.598l-23.492 23.492a7.493 7.493 0 000 10.598zm0 0M133.32 158.254l-18.195 18.195a7.491 7.491 0 00.004 10.598c1.46 1.46 3.379 2.195 5.297 2.195s3.836-.734 5.297-2.195l23.496-23.496a7.49 7.49 0 000-10.594l-23.496-23.496a7.49 7.49 0 00-10.594 0 7.488 7.488 0 000 10.598zm0 0M81.172 188.723c.898.351 1.828.52 2.738.52a7.498 7.498 0 006.977-4.755l18.457-46.988a7.492 7.492 0 10-13.945-5.48l-18.462 46.988c-1.511 3.851.383 8.203 4.235 9.715zm0 0M45.008 233.203h50.48a7.494 7.494 0 000-14.988h-50.48a7.491 7.491 0 00-7.492 7.492 7.492 7.492 0 007.492 7.496zm0 0M211.754 218.215h-88.75a7.494 7.494 0 000 14.988h88.75a7.495 7.495 0 100-14.988zm0 0M45.008 264.809h21.504a7.494 7.494 0 000-14.989H45.008a7.491 7.491 0 00-7.492 7.493 7.492 7.492 0 007.492 7.496zm0 0M184.34 249.82a7.491 7.491 0 00-7.492 7.493 7.492 7.492 0 007.492 7.496h13.094a7.495 7.495 0 100-14.989zm0 0M164.617 257.313a7.494 7.494 0 00-7.492-7.493h-64.32a7.491 7.491 0 00-7.493 7.493 7.492 7.492 0 007.493 7.496h64.32a7.494 7.494 0 007.492-7.496zm0 0M213.703 257.313a7.494 7.494 0 007.492 7.496h24.528a7.495 7.495 0 100-14.989h-24.528a7.494 7.494 0 00-7.492 7.493zm0 0M172.895 164.266h25.87a7.495 7.495 0 100-14.989h-25.87a7.494 7.494 0 100 14.989zm0 0M227.742 164.266h157.856a7.492 7.492 0 007.492-7.496 7.491 7.491 0 00-7.492-7.493H227.742a7.494 7.494 0 100 14.989zm0 0M361.621 182.246h-63.945a7.494 7.494 0 000 14.988h63.945a7.494 7.494 0 000-14.988zm0 0M273.7 182.246h-21.981a7.492 7.492 0 00-7.492 7.496 7.491 7.491 0 007.492 7.492h21.98a7.491 7.491 0 007.492-7.492 7.492 7.492 0 00-7.492-7.496zm0 0M172.895 197.234h53.847a7.494 7.494 0 000-14.988h-53.847a7.495 7.495 0 100 14.988zm0 0M157.219 281.16h-50.477a7.494 7.494 0 00-7.496 7.492 7.494 7.494 0 007.496 7.493h50.477a7.494 7.494 0 007.492-7.493 7.494 7.494 0 00-7.492-7.492zm0 0M83.79 281.16H45.007a7.491 7.491 0 00-7.492 7.492 7.491 7.491 0 007.492 7.493h38.781a7.491 7.491 0 007.492-7.493 7.491 7.491 0 00-7.492-7.492zm0 0M248.723 281.16H182.78a7.491 7.491 0 00-7.492 7.492 7.491 7.491 0 007.492 7.493h65.942a7.494 7.494 0 007.492-7.493 7.494 7.494 0 00-7.492-7.492zm0 0M337.898 242.668H301.84a7.494 7.494 0 000 14.988h36.058a7.492 7.492 0 007.493-7.496 7.491 7.491 0 00-7.493-7.492zm0 0M400.469 257.656h50.902a7.495 7.495 0 100-14.988H400.47a7.491 7.491 0 00-7.492 7.492 7.494 7.494 0 007.492 7.496zm0 0M375.016 242.668h-11.664a7.494 7.494 0 100 14.988h11.664a7.492 7.492 0 007.492-7.496 7.491 7.491 0 00-7.492-7.492zm0 0M301.84 339.313h36.058a7.489 7.489 0 007.493-7.493 7.491 7.491 0 00-7.493-7.492H301.84a7.494 7.494 0 00-7.492 7.492 7.491 7.491 0 007.492 7.493zm0 0M400.469 339.313h50.902a7.492 7.492 0 100-14.985H400.47a7.491 7.491 0 00-7.492 7.492 7.491 7.491 0 007.492 7.493zm0 0M363.352 339.313h11.664a7.492 7.492 0 100-14.985h-11.664a7.491 7.491 0 00-7.493 7.492 7.489 7.489 0 007.493 7.493zm0 0M337.898 405.988H301.84c-4.137 0-7.492 3.356-7.492 7.492s3.355 7.493 7.492 7.493h36.058c4.141 0 7.493-3.356 7.493-7.493s-3.352-7.492-7.493-7.492zm0 0M451.371 405.988H400.47c-4.14 0-7.492 3.356-7.492 7.492s3.351 7.493 7.492 7.493h50.902c4.14 0 7.496-3.356 7.496-7.493s-3.355-7.492-7.496-7.492zm0 0M375.016 405.988h-11.664c-4.141 0-7.497 3.356-7.497 7.492s3.356 7.493 7.497 7.493h11.664c4.14 0 7.492-3.356 7.492-7.493s-3.352-7.492-7.492-7.492zm0 0"/><path d="M479.023.5H32.98C14.797.5 0 15.293 0 33.48v362.567c0 18.183 14.797 32.976 32.98 32.976h28.2a7.491 7.491 0 007.492-7.492 7.494 7.494 0 00-7.492-7.492h-28.2c-9.921 0-17.992-8.07-17.992-17.992V367.62h272.996v12.914h-5.941c-8.129 0-14.738 6.61-14.738 14.738v18.766H106.738a7.494 7.494 0 00-7.492 7.492 7.491 7.491 0 007.492 7.492h72.047v26.875H156.16c-15.094 0-27.37 12.282-27.37 27.372v16.187c0 6.887 5.6 12.488 12.487 12.488h228.875c6.887 0 12.489-5.601 12.489-12.488V483.27c0-15.09-12.278-27.372-27.371-27.372h-22.625v-9.472h138.527c8.125 0 14.734-6.61 14.734-14.739v-3.527c14.606-3.39 25.524-16.496 25.524-32.113l.566-362.57C512 15.293 497.207.5 479.023.5zm-196.73 349.281v-35.918h188.629v35.918zm20.676-50.906v-15.766h147.273v15.766zm147.273 65.89v15.77H302.97v-15.77zM193.77 429.024h73.535v2.668c0 8.125 6.61 14.735 14.738 14.735h35.617v9.472H193.77zm161.503 41.864c6.829 0 12.383 5.554 12.383 12.383v13.69H143.773v-13.69c0-6.829 5.559-12.383 12.387-12.383zm115.649-39.45H282.293v-35.914h188.629zm25.523-35.39c0 7.258-4.328 13.512-10.535 16.351V395.27c0-8.125-6.613-14.735-14.738-14.735h-5.942v-12.914h31.215zm0-43.41h-10.78c.151-.848.245-39.024.245-39.024 0-8.129-6.613-14.738-14.738-14.738h-5.942v-15.766h5.942c8.125 0 14.738-6.613 14.738-14.738v-36.418c0-8.125-6.613-14.738-14.738-14.738h-42.324a7.492 7.492 0 00-7.493 7.496 7.491 7.491 0 007.493 7.492h42.074v35.918H282.293v-35.918h99.93a7.491 7.491 0 007.492-7.492 7.492 7.492 0 00-7.492-7.496h-100.18c-8.129 0-14.738 6.613-14.738 14.738v36.418c0 8.125 6.61 14.738 14.738 14.738h5.941v15.766h-5.941c-8.129 0-14.738 6.613-14.738 14.738 0 0 .093 38.176.246 39.024H14.988V102.43h481.457zm0-265.196H15.54V33.477c0-9.918 8.07-17.989 17.992-17.989h444.922c9.922 0 17.992 8.07 17.992 17.992zm0 0"/><path d="M55.262 29.262c-12.125 0-21.989 9.863-21.989 21.988s9.864 21.992 21.989 21.992 21.992-9.867 21.992-21.992-9.867-21.988-21.992-21.988zm0 28.992c-3.86 0-7.004-3.14-7.004-7.004 0-3.86 3.144-7.004 7.004-7.004 3.863 0 7.004 3.145 7.004 7.004a7.01 7.01 0 01-7.004 7.004zm0 0M111.25 29.262c-12.125 0-21.992 9.863-21.992 21.988s9.867 21.992 21.992 21.992 21.988-9.867 21.988-21.992-9.867-21.988-21.988-21.988zm0 28.992a7.01 7.01 0 01-7.004-7.004c0-3.86 3.14-7.004 7.004-7.004 3.86 0 7.004 3.145 7.004 7.004 0 3.863-3.145 7.004-7.004 7.004zm0 0M167.234 29.262c-12.125 0-21.988 9.863-21.988 21.988s9.863 21.992 21.988 21.992 21.993-9.867 21.993-21.992-9.868-21.988-21.993-21.988zm0 28.992c-3.859 0-7.004-3.14-7.004-7.004 0-3.86 3.145-7.004 7.004-7.004 3.864 0 7.004 3.145 7.004 7.004a7.01 7.01 0 01-7.004 7.004zm0 0"/></symbol><symbol id="facebook" viewBox="0 0 512 512"><path d="M504 256C504 119 393 8 256 8S8 119 8 256c0 123.78 90.69 226.38 209.25 245V327.69h-63V256h63v-54.64c0-62.15 37-96.48 93.67-96.48 27.14 0 55.52 4.84 55.52 4.84v61h-31.28c-30.8 0-40.41 19.12-40.41 38.73V256h68.78l-11 71.69h-57.78V501C413.31 482.38 504 379.78 504 256z"/></symbol><symbol id="instagram" viewBox="0 0 448 512"><path d="M224.1 141c-63.6 0-114.9 51.3-114.9 114.9s51.3 114.9 114.9 114.9S339 319.5 339 255.9 287.7 141 224.1 141zm0 189.6c-41.1 0-74.7-33.5-74.7-74.7s33.5-74.7 74.7-74.7 74.7 33.5 74.7 74.7-33.6 74.7-74.7 74.7zm146.4-194.3c0 14.9-12 26.8-26.8 26.8-14.9 0-26.8-12-26.8-26.8s12-26.8 26.8-26.8 26.8 12 26.8 26.8zm76.1 27.2c-1.7-35.9-9.9-67.7-36.2-93.9-26.2-26.2-58-34.4-93.9-36.2-37-2.1-147.9-2.1-184.9 0-35.8 1.7-67.6 9.9-93.9 36.1s-34.4 58-36.2 93.9c-2.1 37-2.1 147.9 0 184.9 1.7 35.9 9.9 67.7 36.2 93.9s58 34.4 93.9 36.2c37 2.1 147.9 2.1 184.9 0 35.9-1.7 67.7-9.9 93.9-36.2 26.2-26.2 34.4-58 36.2-93.9 2.1-37 2.1-147.8 0-184.8zM398.8 388c-7.8 19.6-22.9 34.7-42.6 42.6-29.5 11.7-99.5 9-132.1 9s-102.7 2.6-132.1-9c-19.6-7.8-34.7-22.9-42.6-42.6-11.7-29.5-9-99.5-9-132.1s-2.6-102.7 9-132.1c7.8-19.6 22.9-34.7 42.6-42.6 29.5-11.7 99.5-9 132.1-9s102.7-2.6 132.1 9c19.6 7.8 34.7 22.9 42.6 42.6 11.7 29.5 9 99.5 9 132.1s2.7 102.7-9 132.1z"/></symbol><symbol id="layers" viewBox="0 0 54.953 54.953"><path d="M45.297 21.946l9.656-5.517L27.477.825 0 16.429l9.656 5.517L0 27.429l9.656 5.517L0 38.429l27.477 15.698 27.476-15.698-9.656-5.483 9.656-5.517-9.656-5.483zM27.477 3.125l23.435 13.309-23.435 13.39-23.436-13.39L27.477 3.125zM11.675 23.099l15.802 9.028 15.802-9.028 7.633 4.335-23.435 13.39-23.436-13.39 7.634-4.335zm39.237 15.335l-23.435 13.39-23.436-13.39 7.634-4.335 15.802 9.028 15.802-9.028 7.633 4.335z"/></symbol><symbol id="responsive" viewBox="0 0 396.494 396.494"><path d="M304.42 330.901h-43.219a2.84 2.84 0 01-2.834-2.834v-10.52a2.842 2.842 0 00-2.834-2.834h-60.475a2.842 2.842 0 00-2.835 2.834v10.52a2.84 2.84 0 01-2.835 2.834h-32.491a2.842 2.842 0 00-2.835 2.834v12.17a2.842 2.842 0 002.835 2.834h147.521a2.842 2.842 0 002.834-2.834v-12.17a2.84 2.84 0 00-2.832-2.834zM377.032 46.368h-308.4c-10.73 0-19.459 8.73-19.459 19.462v50.761c0 6.711-.498 7.66 4.004 7.66h7.72c3.778 0 3.003-.949 3.003-7.785V65.83c0-2.565 2.168-4.733 4.732-4.733h308.4c2.563 0 4.731 2.168 4.731 4.733v189.999h-219.87s-7.749-.014-7.749 10.006v23.766c0 10.006 8 10.006 8 10.006h214.888c10.729 0 19.461-8.729 19.461-19.459V65.83c0-10.731-8.73-19.462-19.461-19.462zM222.833 282.804a8.77 8.77 0 11-.004-17.538 8.77 8.77 0 01.004 17.538z"/><path d="M124.125 141.633H12.559C5.632 141.633 0 147.266 0 154.193v183.372c0 6.926 5.632 12.561 12.559 12.561h111.566c6.923 0 12.559-5.635 12.559-12.561V154.193c0-6.927-5.636-12.56-12.559-12.56zm-69.545 12.81h27.523a2.38 2.38 0 010 4.76H54.58a2.378 2.378 0 01-2.379-2.379 2.378 2.378 0 012.379-2.381zm13.595 186.861a6.5 6.5 0 110-13 6.5 6.5 0 010 13zm57.718-19.104c0 1.676-1.342 3.047-2.98 3.047H13.774c-1.639 0-2.98-1.371-2.98-3.047V169.825c0-1.676 1.342-3.046 2.98-3.046h109.139c1.639 0 2.98 1.371 2.98 3.046V322.2z"/></symbol><symbol id="times" viewBox="0 0 320 512"><path d="M193.94 256L296.5 153.44l21.15-21.15c3.12-3.12 3.12-8.19 0-11.31l-22.63-22.63c-3.12-3.12-8.19-3.12-11.31 0L160 222.06 36.29 98.34c-3.12-3.12-8.19-3.12-11.31 0L2.34 120.97c-3.12 3.12-3.12 8.19 0 11.31L126.06 256 2.34 379.71c-3.12 3.12-3.12 8.19 0 11.31l22.63 22.63c3.12 3.12 8.19 3.12 11.31 0L160 289.94 262.56 392.5l21.15 21.15c3.12 3.12 8.19 3.12 11.31 0l22.63-22.63c3.12-3.12 3.12-8.19 0-11.31L193.94 256z"/></symbol><symbol id="youtube" viewBox="0 0 576 512"><path d="M549.655 124.083c-6.281-23.65-24.787-42.276-48.284-48.597C458.781 64 288 64 288 64S117.22 64 74.629 75.486c-23.497 6.322-42.003 24.947-48.284 48.597-11.412 42.867-11.412 132.305-11.412 132.305s0 89.438 11.412 132.305c6.281 23.65 24.787 41.5 48.284 47.821C117.22 448 288 448 288 448s170.78 0 213.371-11.486c23.497-6.321 42.003-24.171 48.284-47.821 11.412-42.867 11.412-132.305 11.412-132.305s0-89.438-11.412-132.305zm-317.51 213.508V175.185l142.739 81.205-142.739 81.201z"/></symbol></svg>